<?xml version="1.0" encoding="utf-8"?>
<!-- Generator: Adobe Illustrator 19.2.1, SVG Export Plug-In . SVG Version: 6.00 Build 0)  -->
<svg version="1.1" id="Layer_1" xmlns="http://www.w3.org/2000/svg" xmlns:xlink="http://www.w3.org/1999/xlink" x="0px" y="0px"
	 viewBox="0 0 220 11" style="enable-background:new 0 0 220 11;" xml:space="preserve">
<style type="text/css">
	.st0{fill:#F7941E;}
</style>
<g>
	<path d="M0,0.1h2.8l3.1,4.5L9,0.1h2.8v10.7H9.2v-7L5.9,8.4H5.8L2.5,3.8v7H0V0.1z"/>
	<path d="M19.6,0H22l5,10.8h-2.7l-1.1-2.4h-5l-1.1,2.4h-2.6L19.6,0z M22.3,6.3l-1.6-3.5l-1.6,3.5H22.3z"/>
	<path d="M29.9,0.1h2.6v8.6h5.9v2.1h-8.4V0.1z"/>
	<path d="M46.2,0h2.4l5,10.8h-2.7l-1.1-2.4h-5l-1.1,2.4h-2.6L46.2,0z M48.9,6.3l-1.6-3.5l-1.6,3.5H48.9z"/>
	<path d="M53.7,0h2.9l3.1,7.6L62.7,0h2.8l-4.8,10.8h-2.3L53.7,0z"/>
	<path d="M68.3,0.1h8.9v2.1h-6.3v2.2h5.5v2.1h-5.5v2.3h6.4v2.1h-8.9V0.1z"/>
	<ellipse class="st0" cx="85.2" cy="5.4" rx="2.5" ry="2.3"/>
	<g>
		<path d="M93.1,0.1h2.6v4.3h4.8V0.1h2.6V11h-2.6V6.6h-4.8V11h-2.6V0.1z"/>
		<path d="M108,0.1h8.9v2.1h-6.3v2.2h5.6v2.1h-5.6v2.3h6.4V11h-9V0.1z"/>
		<path d="M121.4,0.1h5.4c1.5,0,2.7,0.4,3.5,1.1c0.7,0.6,1,1.5,1,2.5v0c0,1.7-1,2.8-2.5,3.4l2.9,3.9h-3L126,7.5h-2V11h-2.6V0.1z
			 M126.6,5.4c1.3,0,2-0.6,2-1.5v0c0-1-0.8-1.5-2-1.5H124v3.1H126.6z"/>
		<path d="M135.6,0.1h2.4l5.6,6.7V0.1h2.6V11h-2.2l-5.7-6.9V11h-2.6V0.1z"/>
		<path d="M155.1,0.1h2.4l5.1,10.9h-2.7l-1.1-2.4h-5l-1.1,2.4H150L155.1,0.1z M157.8,6.4l-1.6-3.5l-1.6,3.5H157.8z"/>
		<path d="M166.4,0.1h2.4l5.6,6.7V0.1h2.6V11h-2.2L169,4.1V11h-2.6V0.1z"/>
		<path d="M181.8,0.1h4.6c3.7,0,6.3,2.3,6.3,5.4v0c0,3-2.6,5.4-6.3,5.4h-4.6V0.1z M186.5,8.8c2.1,0,3.6-1.3,3.6-3.2v0
			c0-1.9-1.4-3.3-3.6-3.3h-2v6.5H186.5z"/>
		<path d="M197.1,0.1h8.9v2.1h-6.3v2.2h5.6v2.1h-5.6v2.3h6.4V11h-9V0.1z"/>
		<path d="M210.1,9.2l6.5-6.9h-6.3V0.1h9.7V2l-6.5,6.9h6.5V11h-9.9V9.2z"/>
	</g>
</g>
</svg>
